<?xml version="1.0" encoding="utf-8"?>
<!-- Generator: Adobe Illustrator 19.0.0, SVG Export Plug-In . SVG Version: 6.00 Build 0)  -->
<!DOCTYPE svg PUBLIC "-//W3C//DTD SVG 1.1//EN" "http://www.w3.org/Graphics/SVG/1.1/DTD/svg11.dtd">
<svg version="1.1" id="Layer_1" xmlns="http://www.w3.org/2000/svg" xmlns:xlink="http://www.w3.org/1999/xlink" x="0px" y="0px"
	 viewBox="0 0 65 87" enable-background="new 0 0 65 87" xml:space="preserve">
<line opacity="0.2" fill="none" stroke="#3F6689" stroke-width="2" stroke-linecap="round" stroke-linejoin="round" stroke-miterlimit="10" x1="59" y1="79" x2="60" y2="79"/>
<path fill="none" stroke="#3F6689" stroke-width="2" stroke-linecap="round" stroke-miterlimit="10" d="M58.2,58.2V42.6
	c0-1.2-0.9-2.1-2.1-2.1H7c-1.4,0-3.1-0.7-3.4-2.1"/>
<path fill="none" stroke="#3F6689" stroke-width="2" stroke-linecap="round" stroke-miterlimit="10" d="M7.4,36.2
	c-2.9,0-4.9,2.4-4.9,5.3v36.2c0,2.9,2.4,5.3,5.3,5.3h48.3c1.2,0,2.1-0.9,2.1-2.1V67.3"/>
<path fill="none" stroke="#3F6689" stroke-width="2" stroke-miterlimit="10" d="M60.9,56.9V38.3c0-1.2-0.9-2.1-2.1-2.1h-4.9"/>
<path fill="none" stroke="#3F6689" stroke-width="2" stroke-miterlimit="10" d="M58.8,78.8c1.2,0,2.1-0.9,2.1-2.1V64.2"/>
<polyline opacity="0.6" fill="none" stroke="#3F6689" stroke-linejoin="round" stroke-miterlimit="10" stroke-dasharray="3" points="
	53.6,66.7 53.6,78.2 7.8,78.2 "/>
<polyline opacity="0.6" fill="none" stroke="#3F6689" stroke-linejoin="round" stroke-miterlimit="10" stroke-dasharray="3" points="
	8.4,44.8 53.6,44.8 53.6,58.7 "/>
<line opacity="0.2" fill="none" stroke="#3F6689" stroke-width="2" stroke-linecap="round" stroke-linejoin="round" stroke-miterlimit="10" x1="7" y1="84" x2="57" y2="84"/>
<line opacity="0.2" fill="none" stroke="#3F6689" stroke-width="2" stroke-linecap="round" stroke-linejoin="round" stroke-miterlimit="10" x1="48" y1="68" x2="59" y2="68"/>
<line opacity="0.2" fill="none" stroke="#3F6689" stroke-width="2" stroke-linecap="round" stroke-linejoin="round" stroke-miterlimit="10" x1="54" y1="37" x2="60" y2="37"/>
<g>
	<path fill="none" stroke="#3F6689" stroke-miterlimit="10" d="M9.2,38l-1-1c-0.2-0.2-0.2-0.5,0-0.7L42.9,1.4c0.2-0.2,0.5-0.2,0.7,0
		l18.5,18.5c0.2,0.2,0.2,0.5,0,0.7l-1.6,1.6"/>
	<path fill="none" stroke="#3F6689" stroke-linejoin="bevel" stroke-miterlimit="10" d="M7.7,39.5L42.4,4.8c0.2-0.2,0.5-0.2,0.7,0
		l18.5,18.5c0.2,0.2,0.2,0.5,0,0.7l-1.2,1.2"/>
	<path fill="none" stroke="#3F6689" stroke-miterlimit="10" d="M42.9,8.7c0.2-0.2,0.5-0.2,0.7,0l18.5,18.5c0.2,0.2,0.2,0.5,0,0.7"/>
	<path opacity="0.6" fill="none" stroke="#3F6689" stroke-linejoin="round" stroke-miterlimit="10" d="M47.6,12.7
		c-2.4,2.4-6.2,2.4-8.6,0l4.2-4.2L47.6,12.7z"/>
	<path opacity="0.6" fill="none" stroke="#3F6689" stroke-linejoin="round" stroke-miterlimit="10" d="M58.2,31.9
		c-2.4-2.4-2.4-6.2,0-8.6"/>
	<path opacity="0.6" fill="none" stroke="#3F6689" stroke-linejoin="round" stroke-miterlimit="10" d="M29.7,40.4
		c-2.9-3.5-3.2-8.1-0.6-10.7c2.8-2.8,8-2.2,11.6,1.3c2.9,2.9,3.8,6.8,2.6,9.7"/>
	<g>
		<path fill="#3F6689" d="M39.4,40.5l-1-1c-0.6,0.5-1.3,0.9-1.9,1l-0.4-0.9c0.6-0.1,1.2-0.4,1.8-1c0.7-0.7,0.7-1.5,0.2-2.1
			c-0.5-0.5-1.2-0.5-2.2-0.1c-1.3,0.6-2.4,0.7-3.2-0.1c-0.8-0.8-0.8-1.9-0.1-3l-1-1l0.6-0.6l0.9,0.9c0.6-0.5,1.1-0.8,1.6-0.9
			l0.4,0.9c-0.3,0.1-0.9,0.3-1.5,0.9c-0.7,0.7-0.6,1.4-0.2,1.8c0.5,0.5,1.1,0.4,2.3-0.1c1.4-0.6,2.4-0.6,3.2,0.3
			c0.7,0.7,0.9,2,0.1,3.1l1,1L39.4,40.5z"/>
	</g>
	<circle opacity="0.6" fill="none" stroke="#3F6689" stroke-miterlimit="10" cx="44.6" cy="27" r="2.5"/>
	<path fill="none" stroke="#3F6689" stroke-width="2" stroke-linejoin="bevel" stroke-miterlimit="10" d="M11.1,40.6L42.9,8.7
		c0.2-0.2,0.5-0.2,0.7,0l18.5,18.5c0.2,0.2,0.2,0.5,0,0.7L49.6,40.5"/>
</g>
<path fill="none" stroke="#3F6689" stroke-width="2" stroke-linejoin="round" stroke-miterlimit="10" d="M58.2,59h-8.8
	c-2,0-3.6,2-3.6,4c0,2,1.6,4,3.6,4h8.8l3.8-3.9v-7.8L58.2,59z"/>
<circle fill="none" stroke="#3F6689" stroke-linejoin="round" stroke-miterlimit="10" cx="50" cy="62.6" r="1.5"/>
<line opacity="0.2" fill="none" stroke="#3F6689" stroke-width="2" stroke-linecap="round" stroke-linejoin="round" stroke-miterlimit="10" x1="59" y1="46" x2="60" y2="46"/>
<line opacity="0.2" fill="none" stroke="#3F6689" stroke-width="2" stroke-linecap="round" stroke-linejoin="round" stroke-miterlimit="10" x1="59" y1="53" x2="60" y2="53"/>
</svg>
