<?xml version="1.0" encoding="utf-8"?>
<!-- Generator: Adobe Illustrator 18.1.0, SVG Export Plug-In . SVG Version: 6.00 Build 0)  -->
<!DOCTYPE svg PUBLIC "-//W3C//DTD SVG 1.1//EN" "http://www.w3.org/Graphics/SVG/1.1/DTD/svg11.dtd">
<svg version="1.1" id="Layer_1" xmlns="http://www.w3.org/2000/svg" xmlns:xlink="http://www.w3.org/1999/xlink" x="0px" y="0px"
	 viewBox="0 0 175 175" enable-background="new 0 0 175 175" xml:space="preserve">
<path fill="none" stroke="#A0C9E0" stroke-width="0.9867" stroke-miterlimit="10" d="M119,56.5c-0.4,0-0.7,0.1-0.9,0.4
	c-0.3-0.2-0.6-0.4-0.9-0.4s-0.7,0.1-0.9,0.4c-0.3-0.2-0.6-0.4-0.9-0.4c-0.4,0-0.7,0.1-0.9,0.4c-0.3-0.2-0.6-0.4-0.9-0.4
	c-0.8,0-1.4,0.6-1.4,1.4s0.6,1.4,1.4,1.4c0.4,0,0.7-0.1,0.9-0.4c0.3,0.2,0.6,0.4,0.9,0.4c0.4,0,0.7-0.1,0.9-0.4
	c0.3,0.2,0.6,0.4,0.9,0.4s0.7-0.1,0.9-0.4c0.3,0.2,0.6,0.4,0.9,0.4c0.8,0,1.4-0.6,1.4-1.4S119.8,56.5,119,56.5z"/>
<path fill="none" stroke="#A0C9E0" stroke-width="0.9867" stroke-miterlimit="10" d="M131.4,56.5c-0.4,0-0.7,0.1-0.9,0.4
	c-0.3-0.2-0.6-0.4-0.9-0.4c-0.4,0-0.7,0.1-0.9,0.4c-0.3-0.2-0.6-0.4-0.9-0.4s-0.7,0.1-0.9,0.4c-0.3-0.2-0.6-0.4-0.9-0.4
	c-0.8,0-1.4,0.6-1.4,1.4s0.6,1.4,1.4,1.4c0.4,0,0.7-0.1,0.9-0.4c0.3,0.2,0.6,0.4,0.9,0.4s0.7-0.1,0.9-0.4c0.3,0.2,0.6,0.4,0.9,0.4
	c0.4,0,0.7-0.1,0.9-0.4c0.3,0.2,0.6,0.4,0.9,0.4c0.8,0,1.4-0.6,1.4-1.4S132.2,56.5,131.4,56.5z"/>
<path fill="none" stroke="#A0C9E0" stroke-width="0.9867" stroke-miterlimit="10" d="M142.7,56.5c-0.4,0-0.7,0.1-0.9,0.4
	c-0.3-0.2-0.6-0.4-0.9-0.4s-0.7,0.1-0.9,0.4c-0.3-0.2-0.6-0.4-0.9-0.4s-0.7,0.1-0.9,0.4c-0.3-0.2-0.6-0.4-0.9-0.4
	c-0.8,0-1.4,0.6-1.4,1.4s0.6,1.4,1.4,1.4c0.4,0,0.7-0.1,0.9-0.4c0.3,0.2,0.6,0.4,0.9,0.4s0.7-0.1,0.9-0.4c0.3,0.2,0.6,0.4,0.9,0.4
	s0.7-0.1,0.9-0.4c0.3,0.2,0.6,0.4,0.9,0.4c0.8,0,1.4-0.6,1.4-1.4S143.5,56.5,142.7,56.5z"/>
<path fill="none" stroke="#A0C9E0" stroke-width="0.9867" stroke-miterlimit="10" d="M153.1,56.5c-0.4,0-0.7,0.1-0.9,0.4
	c-0.3-0.2-0.6-0.4-0.9-0.4s-0.7,0.1-0.9,0.4c-0.3-0.2-0.6-0.4-0.9-0.4s-0.7,0.1-0.9,0.4c-0.3-0.2-0.6-0.4-0.9-0.4
	c-0.8,0-1.4,0.6-1.4,1.4s0.6,1.4,1.4,1.4c0.4,0,0.7-0.1,0.9-0.4c0.3,0.2,0.6,0.4,0.9,0.4s0.7-0.1,0.9-0.4c0.3,0.2,0.6,0.4,0.9,0.4
	s0.7-0.1,0.9-0.4c0.3,0.2,0.6,0.4,0.9,0.4c0.8,0,1.4-0.6,1.4-1.4S153.9,56.5,153.1,56.5z"/>
<polyline opacity="0.2" fill="none" stroke="#3F6689" stroke-width="4" stroke-linejoin="round" stroke-miterlimit="10" points="
	48.5,158.5 52.7,90.6 52.4,59.7 "/>
<polyline fill="none" stroke="#3F6689" stroke-width="2" stroke-miterlimit="10" points="54.9,58 19.9,66.4 20.2,158.5 54.5,158.5 
	"/>
<polygon fill="#CCE7F2" points="32.3,88.2 25,88.2 25,68.8 32.3,67.6 "/>
<polygon fill="#CCE7F2" points="43,88.2 35.8,88.2 35.8,66.4 43,65.2 "/>
<rect x="25" y="90.6" fill="#CCE7F2" width="7.3" height="19.4"/>
<rect x="35.8" y="90.6" fill="#CCE7F2" width="7.3" height="19.4"/>
<rect x="25" y="112.4" fill="#CCE7F2" width="7.3" height="19.4"/>
<rect x="35.8" y="112.4" fill="#CCE7F2" width="7.3" height="19.4"/>
<rect x="25" y="134.2" fill="#CCE7F2" width="7.3" height="19.4"/>
<rect x="35.8" y="134.2" fill="#CCE7F2" width="7.3" height="19.4"/>
<polyline fill="none" stroke="#3F6689" stroke-width="2" stroke-linejoin="round" stroke-miterlimit="10" points="78.9,158.5 
	50.5,158.5 54.7,90.6 54.1,41 60.3,41 65.3,10.7 70.3,41 76.5,41 76.4,74.3 "/>
<polyline fill="none" stroke="#3F6689" stroke-width="2" stroke-miterlimit="10" points="114.5,74.5 74.5,74.5 74.5,158.5 
	111.7,158.5 114.5,158.5 "/>
<rect x="93" y="72" fill="none" stroke="#3F6689" stroke-miterlimit="10" width="11" height="2"/>
<rect x="111" y="60" fill="none" stroke="#3F6689" stroke-miterlimit="10" width="10" height="3"/>
<polyline fill="none" stroke="#3F6689" stroke-width="2" stroke-miterlimit="10" points="114.5,71.5 114.5,158.5 151.5,158.5 
	151.5,71.5 "/>
<rect x="123" y="60" fill="none" stroke="#3F6689" stroke-miterlimit="10" width="10" height="3"/>
<rect x="135" y="60" fill="none" stroke="#3F6689" stroke-miterlimit="10" width="9" height="3"/>
<rect x="146" y="60" fill="none" stroke="#3F6689" stroke-miterlimit="10" width="9" height="3"/>
<rect x="109.5" y="63.5" fill="none" stroke="#3F6689" stroke-width="2" stroke-miterlimit="10" width="46" height="8"/>
<rect x="120" y="77" fill="none" stroke="#3F6689" stroke-miterlimit="10" width="26" height="12"/>
<rect x="120" y="94" fill="none" stroke="#3F6689" stroke-miterlimit="10" width="26" height="10"/>
<rect x="120" y="110" fill="none" stroke="#3F6689" stroke-miterlimit="10" width="26" height="11"/>
<rect x="120" y="126" fill="none" stroke="#3F6689" stroke-miterlimit="10" width="26" height="11"/>
<rect x="120" y="142" fill="none" stroke="#3F6689" stroke-miterlimit="10" width="26" height="11"/>
<line opacity="0.2" fill="none" stroke="#3F6689" stroke-width="2" stroke-linejoin="round" stroke-miterlimit="10" x1="72.5" y1="73.5" x2="72.5" y2="158.5"/>
<line opacity="0.2" fill="none" stroke="#3F6689" stroke-width="2" stroke-linejoin="round" stroke-miterlimit="10" x1="112.5" y1="73.5" x2="112.5" y2="158.5"/>
<line opacity="0.2" fill="none" stroke="#3F6689" stroke-width="2" stroke-linejoin="round" stroke-miterlimit="10" x1="115.5" y1="72.5" x2="150.5" y2="72.5"/>
<path fill="none" stroke="#3F6689" stroke-width="2" stroke-miterlimit="10" d="M39.4,158.5"/>
<g>
	<line fill="none" stroke="#BECCD3" stroke-miterlimit="10" stroke-dasharray="2,2" x1="58.5" y1="48" x2="72.5" y2="48"/>
	<line fill="none" stroke="#BECCD3" stroke-miterlimit="10" stroke-dasharray="2,2" x1="58.5" y1="52" x2="72.5" y2="52"/>
	<line fill="none" stroke="#BECCD3" stroke-miterlimit="10" stroke-dasharray="2,2" x1="58.5" y1="57" x2="72.5" y2="57"/>
	<line fill="none" stroke="#BECCD3" stroke-miterlimit="10" stroke-dasharray="2,2" x1="58.5" y1="62" x2="72.5" y2="62"/>
	<line fill="none" stroke="#BECCD3" stroke-miterlimit="10" stroke-dasharray="2,2" x1="58.5" y1="67" x2="72.5" y2="67"/>
	<line fill="none" stroke="#BECCD3" stroke-miterlimit="10" stroke-dasharray="2,2" x1="58.5" y1="72" x2="72.5" y2="72"/>
	<line fill="none" stroke="#BECCD3" stroke-miterlimit="10" stroke-dasharray="2,2" x1="58.5" y1="77" x2="72.5" y2="77"/>
	<line fill="none" stroke="#BECCD3" stroke-miterlimit="10" stroke-dasharray="2,2" x1="58.5" y1="81" x2="72.5" y2="81"/>
	<line fill="none" stroke="#BECCD3" stroke-miterlimit="10" stroke-dasharray="2,2" x1="58.5" y1="86" x2="72.5" y2="86"/>
	<line fill="none" stroke="#BECCD3" stroke-miterlimit="10" stroke-dasharray="2,2" x1="58.5" y1="91" x2="72.5" y2="91"/>
	<line fill="none" stroke="#BECCD3" stroke-miterlimit="10" stroke-dasharray="2,2" x1="58.5" y1="96" x2="72.5" y2="96"/>
	<line fill="none" stroke="#BECCD3" stroke-miterlimit="10" stroke-dasharray="2,2" x1="58.5" y1="101" x2="72.5" y2="101"/>
	<line fill="none" stroke="#BECCD3" stroke-miterlimit="10" stroke-dasharray="2,2" x1="58.5" y1="106" x2="72.5" y2="106"/>
	<line fill="none" stroke="#BECCD3" stroke-miterlimit="10" stroke-dasharray="2,2" x1="58.5" y1="110" x2="72.5" y2="110"/>
	<line fill="none" stroke="#BECCD3" stroke-miterlimit="10" stroke-dasharray="2,2" x1="58.5" y1="115" x2="72.5" y2="115"/>
	<line fill="none" stroke="#BECCD3" stroke-miterlimit="10" stroke-dasharray="2,2" x1="58.5" y1="120" x2="72.5" y2="120"/>
	<line fill="none" stroke="#BECCD3" stroke-miterlimit="10" stroke-dasharray="2,2" x1="58.5" y1="125" x2="72.5" y2="125"/>
	<line fill="none" stroke="#BECCD3" stroke-miterlimit="10" stroke-dasharray="2,2" x1="58.5" y1="130" x2="72.5" y2="130"/>
	<line fill="none" stroke="#BECCD3" stroke-miterlimit="10" stroke-dasharray="2,2" x1="58.5" y1="135" x2="72.5" y2="135"/>
	<line fill="none" stroke="#BECCD3" stroke-miterlimit="10" stroke-dasharray="2,2" x1="58.5" y1="140" x2="72.5" y2="140"/>
	<line fill="none" stroke="#BECCD3" stroke-miterlimit="10" stroke-dasharray="2,2" x1="58.5" y1="144" x2="72.5" y2="144"/>
	<line fill="none" stroke="#BECCD3" stroke-miterlimit="10" stroke-dasharray="2,2" x1="58.5" y1="149" x2="72.5" y2="149"/>
	<line fill="none" stroke="#BECCD3" stroke-miterlimit="10" stroke-dasharray="2,2" x1="58.5" y1="154" x2="72.5" y2="154"/>
</g>
<path fill="none" stroke="#A0C9E0" stroke-miterlimit="10" d="M83.9,80.3c1.5,1.5,1.5,4.1,0,5.6"/>
<path fill="none" stroke="#A0C9E0" stroke-miterlimit="10" d="M94.3,80.3c1.5,1.5,1.5,4.1,0,5.6"/>
<path fill="none" stroke="#A0C9E0" stroke-miterlimit="10" d="M83.9,96c1.5,1.5,1.5,4.1,0,5.6"/>
<path fill="none" stroke="#A0C9E0" stroke-miterlimit="10" d="M94.3,96c1.5,1.5,1.5,4.1,0,5.6"/>
<path fill="none" stroke="#A0C9E0" stroke-miterlimit="10" d="M83.9,111.7c1.5,1.5,1.5,4.1,0,5.6"/>
<path fill="none" stroke="#A0C9E0" stroke-miterlimit="10" d="M94.3,111.7c1.5,1.5,1.5,4.1,0,5.6"/>
<path fill="none" stroke="#A0C9E0" stroke-miterlimit="10" d="M83.9,127.5c1.5,1.5,1.5,4.1,0,5.6"/>
<path fill="none" stroke="#A0C9E0" stroke-miterlimit="10" d="M94.3,127.5c1.5,1.5,1.5,4.1,0,5.6"/>
<path fill="none" stroke="#A0C9E0" stroke-miterlimit="10" d="M83.9,143.2c1.5,1.5,1.5,4.1,0,5.6"/>
<path fill="none" stroke="#A0C9E0" stroke-miterlimit="10" d="M94.3,143.2c1.5,1.5,1.5,4.1,0,5.6"/>
<path fill="none" stroke="#A0C9E0" stroke-miterlimit="10" d="M104,80.3c1.5,1.5,1.5,4.1,0,5.6"/>
<path fill="none" stroke="#A0C9E0" stroke-miterlimit="10" d="M104,96c1.5,1.5,1.5,4.1,0,5.6"/>
<path fill="none" stroke="#A0C9E0" stroke-miterlimit="10" d="M104,111.7c1.5,1.5,1.5,4.1,0,5.6"/>
<path fill="none" stroke="#A0C9E0" stroke-miterlimit="10" d="M104,127.5c1.5,1.5,1.5,4.1,0,5.6"/>
<path fill="none" stroke="#A0C9E0" stroke-miterlimit="10" d="M104,143.2c1.5,1.5,1.5,4.1,0,5.6"/>
</svg>
