<?xml version="1.0" encoding="utf-8"?>
<!-- Generator: Adobe Illustrator 18.1.0, SVG Export Plug-In . SVG Version: 6.00 Build 0)  -->
<!DOCTYPE svg PUBLIC "-//W3C//DTD SVG 1.1//EN" "http://www.w3.org/Graphics/SVG/1.1/DTD/svg11.dtd">
<svg version="1.1" id="Layer_1" xmlns="http://www.w3.org/2000/svg" xmlns:xlink="http://www.w3.org/1999/xlink" x="0px" y="0px"
	 viewBox="0 0 144 144" enable-background="new 0 0 144 144" xml:space="preserve">
<g>
	<g>
		<path fill="none" stroke="#BECCD3" stroke-miterlimit="10" d="M47.5,129.9c0.2,0,0.6,0,0.8,0"/>
		<path fill="none" stroke="#BECCD3" stroke-miterlimit="10" stroke-dasharray="2.0048,2.0048" d="M49.9,129.8
			c46.9-0.4,65.5-5.9,65.5-22c0-19.7-35.8-15.1-38.3-26.7c-2.4-11.4,30.8-3.7,22.1-32.6"/>
		<path fill="none" stroke="#BECCD3" stroke-miterlimit="10" d="M99,47.7c-0.1-0.2-0.2-0.5-0.2-0.8"/>
	</g>
</g>
<path fill="#CCE7F2" d="M50.7,80.2l2-3.5l3.9-5.8l3.3-1.2l5.1-13.3l4.9-12l10.4-10.2l6.4-9.8l4.6-6.7l-4.9,9.8V31l-3.8,5l1.3,3
	l-2.1,4.6l-0.6,3.9l-8.5,17c0,0-2.1,8.3-2.8,8.6c-0.7,0.2-15.6,10.9-15.6,10.9L50.7,80.2z"/>
<polyline fill="none" stroke="#3F6689" stroke-width="2" stroke-linecap="round" stroke-miterlimit="10" points="22.1,121 
	135.8,121 134,110 126.4,100.2 117.8,70.6 115.7,63.8 114.6,56.4 109.6,49 103.6,36.9 103.6,33.7 94.4,19.7 91,18.1 86.5,24.6 
	80.3,34.2 69.9,44.4 65.1,56.4 59.9,69.8 56.7,71 50.7,80.2 "/>
<g>
	<g>
		<circle fill="#FFFFFF" stroke="#3F6689" stroke-width="2" stroke-miterlimit="10" cx="98.9" cy="14.6" r="2.4"/>
		<path fill="#FFFFFF" stroke="#3F6689" stroke-width="2" stroke-linecap="round" stroke-miterlimit="10" d="M98.9,18.3
			c4.4,4.4,15.6-4.9,22,0.4l-3.2,5.7c0,0,3.2,4.6,3.2,7.1c-6.7-3.9-17.1,4.7-22-0.2"/>
		
			<line fill="none" stroke="#3F6689" stroke-width="2" stroke-linecap="round" stroke-miterlimit="10" x1="98.9" y1="17" x2="98.9" y2="44.5"/>
	</g>
</g>
<polyline fill="none" stroke="#3F6689" stroke-miterlimit="10" points="104.5,24.8 108,27.8 113.7,21.1 "/>
<path fill="none" stroke="#3F6689" stroke-miterlimit="10" d="M22.1,121.4"/>
<polygon fill="#CCE7F2" points="8.8,114.3 24.3,80 29.1,75.5 36.9,50.3 42,41.1 46.1,37.9 41.3,49.6 39.6,66.3 36.6,81.4 27.9,89.2 
	27.9,94.6 20.5,107.1 "/>
<polyline fill="none" stroke="#3F6689" stroke-width="2" stroke-miterlimit="10" points="66.5,54.3 62.8,48.4 59.4,44.5 56.1,48.1 
	52.7,44.9 46.1,37.9 42,41.1 36.9,50.3 29.1,75.5 24.3,80 8.8,114.3 8.4,121 22.1,121 "/>
</svg>
